<svg id="Layer_1" enable-background="new 0 0 512.144 512.144" height="512" viewBox="0 0 512.144 512.144" width="512" xmlns="http://www.w3.org/2000/svg"><g><path d="m421.422 66.652c-24.115-24.116-56.18-37.398-90.285-37.398s-66.17 13.282-90.286 37.398l-11.47 11.47-11.471-11.47c-24.116-24.116-56.181-37.398-90.286-37.398s-66.169 13.282-90.286 37.398c-49.783 49.782-49.784 130.786-.002 180.569l192.037 192.047 192.052-192.047c49.782-49.783 49.78-130.786-.003-180.569z" fill="#ff415b"/><path d="m421.422 66.652c-24.115-24.116-56.18-37.398-90.285-37.398s-66.17 13.282-90.286 37.398l-11.47 11.47v361.139l192.044-192.039c49.782-49.784 49.78-130.787-.003-180.57z" fill="#e50058"/><g><path d="m229.536 253.29-43.188-48.923-15.092 16.77h-65.148v-30h51.787l28.67-31.856 42.661 48.327 14.147-16.471h24.974l35.064-45.086 50.507 58.208-22.658 19.662-26.581-30.634-21.658 27.85h-25.869z" fill="#fff5f5"/></g><path d="m303.411 146.051-35.064 45.086h-24.974l-13.992 16.291v45.686l.155.176 27.616-32.153h25.869l21.658-27.85 26.581 30.634 22.658-19.662z" fill="#e1ebf0"/><path d="m250.634 221.38h216.642v216.642h-216.642z" fill="#ffda44" transform="matrix(.707 -.707 .707 .707 -127.998 350.388)"/><path d="m358.954 176.512v306.378l153.19-153.189z" fill="#ffb655"/><g><path d="m343.954 272.103h30v67.5h-30z" fill="#0b799d"/></g><g><path d="m343.954 360.103h30v30.002h-30z" fill="#0b799d"/></g><g fill="#07485e"><path d="m358.954 272.103h15v67.5h-15z"/><path d="m358.954 360.103h15v30.002h-15z"/></g></g></svg>